<mxfile host="Electron" modified="2023-08-10T22:10:38.490Z" agent="Mozilla/5.0 (X11; Linux x86_64) AppleWebKit/537.36 (KHTML, like Gecko) draw.io/21.6.8 Chrome/114.0.5735.289 Electron/25.5.0 Safari/537.36" etag="IYhYPt5E_jk7k1PIEglF" version="21.6.8" type="device">
  <diagram id="PawObtsqleVGvEmu9BIH" name="Página-2">
    <mxGraphModel dx="2294" dy="885" grid="1" gridSize="10" guides="1" tooltips="1" connect="1" arrows="1" fold="1" page="1" pageScale="1" pageWidth="827" pageHeight="1169" math="0" shadow="0">
      <root>
        <mxCell id="0" />
        <mxCell id="1" parent="0" />
        <mxCell id="T2HiSGA0iF5aa_nr4sq--91" value="" style="edgeStyle=orthogonalEdgeStyle;rounded=0;orthogonalLoop=1;jettySize=auto;html=1;" edge="1" parent="1" source="T2HiSGA0iF5aa_nr4sq--3" target="T2HiSGA0iF5aa_nr4sq--90">
          <mxGeometry relative="1" as="geometry" />
        </mxCell>
        <mxCell id="T2HiSGA0iF5aa_nr4sq--3" value="4 MINUTOS" style="strokeWidth=2;html=1;shape=mxgraph.flowchart.delay;whiteSpace=wrap;" vertex="1" parent="1">
          <mxGeometry x="460" y="895" width="100" height="60" as="geometry" />
        </mxCell>
        <mxCell id="T2HiSGA0iF5aa_nr4sq--74" style="edgeStyle=orthogonalEdgeStyle;rounded=0;orthogonalLoop=1;jettySize=auto;html=1;exitX=0.93;exitY=0.5;exitDx=0;exitDy=0;exitPerimeter=0;entryX=0;entryY=0.5;entryDx=0;entryDy=0;entryPerimeter=0;" edge="1" parent="1" source="T2HiSGA0iF5aa_nr4sq--4" target="T2HiSGA0iF5aa_nr4sq--3">
          <mxGeometry relative="1" as="geometry" />
        </mxCell>
        <mxCell id="T2HiSGA0iF5aa_nr4sq--4" value="FIREBASE" style="strokeWidth=2;html=1;shape=mxgraph.flowchart.stored_data;whiteSpace=wrap;" vertex="1" parent="1">
          <mxGeometry x="290" y="950" width="100" height="60" as="geometry" />
        </mxCell>
        <mxCell id="T2HiSGA0iF5aa_nr4sq--83" value="" style="edgeStyle=orthogonalEdgeStyle;rounded=0;orthogonalLoop=1;jettySize=auto;html=1;" edge="1" parent="1" source="T2HiSGA0iF5aa_nr4sq--7" target="T2HiSGA0iF5aa_nr4sq--67">
          <mxGeometry relative="1" as="geometry" />
        </mxCell>
        <mxCell id="T2HiSGA0iF5aa_nr4sq--7" value="JSON" style="shape=parallelogram;html=1;strokeWidth=2;perimeter=parallelogramPerimeter;whiteSpace=wrap;rounded=1;arcSize=12;size=0.23;" vertex="1" parent="1">
          <mxGeometry x="65" y="770" width="100" height="60" as="geometry" />
        </mxCell>
        <mxCell id="T2HiSGA0iF5aa_nr4sq--22" value="" style="edgeStyle=orthogonalEdgeStyle;rounded=0;orthogonalLoop=1;jettySize=auto;html=1;" edge="1" parent="1" source="T2HiSGA0iF5aa_nr4sq--8" target="T2HiSGA0iF5aa_nr4sq--20">
          <mxGeometry relative="1" as="geometry" />
        </mxCell>
        <mxCell id="T2HiSGA0iF5aa_nr4sq--8" value="INÍCIO" style="html=1;dashed=0;whiteSpace=wrap;shape=mxgraph.dfd.start" vertex="1" parent="1">
          <mxGeometry x="20" y="30" width="80" height="30" as="geometry" />
        </mxCell>
        <mxCell id="T2HiSGA0iF5aa_nr4sq--73" style="edgeStyle=orthogonalEdgeStyle;rounded=0;orthogonalLoop=1;jettySize=auto;html=1;exitX=1;exitY=0.5;exitDx=0;exitDy=0;" edge="1" parent="1" source="T2HiSGA0iF5aa_nr4sq--9" target="T2HiSGA0iF5aa_nr4sq--3">
          <mxGeometry relative="1" as="geometry" />
        </mxCell>
        <mxCell id="T2HiSGA0iF5aa_nr4sq--9" value="ARQUIVO BACKUP .txt" style="shape=document;whiteSpace=wrap;html=1;boundedLbl=1;dashed=0;flipH=1;" vertex="1" parent="1">
          <mxGeometry x="290" y="850" width="100" height="70" as="geometry" />
        </mxCell>
        <mxCell id="T2HiSGA0iF5aa_nr4sq--39" style="edgeStyle=orthogonalEdgeStyle;rounded=0;orthogonalLoop=1;jettySize=auto;html=1;entryX=1;entryY=0.5;entryDx=0;entryDy=0;exitX=1;exitY=0.5;exitDx=0;exitDy=0;" edge="1" parent="1" source="T2HiSGA0iF5aa_nr4sq--10" target="T2HiSGA0iF5aa_nr4sq--36">
          <mxGeometry relative="1" as="geometry">
            <Array as="points">
              <mxPoint x="660" y="265" />
              <mxPoint x="660" y="195" />
            </Array>
          </mxGeometry>
        </mxCell>
        <mxCell id="T2HiSGA0iF5aa_nr4sq--42" value="" style="edgeStyle=orthogonalEdgeStyle;rounded=0;orthogonalLoop=1;jettySize=auto;html=1;" edge="1" parent="1" source="T2HiSGA0iF5aa_nr4sq--10" target="T2HiSGA0iF5aa_nr4sq--41">
          <mxGeometry relative="1" as="geometry" />
        </mxCell>
        <mxCell id="T2HiSGA0iF5aa_nr4sq--10" value="" style="shape=rhombus;html=1;dashed=0;whiteSpace=wrap;perimeter=rhombusPerimeter;" vertex="1" parent="1">
          <mxGeometry x="535" y="240" width="60" height="50" as="geometry" />
        </mxCell>
        <mxCell id="T2HiSGA0iF5aa_nr4sq--24" value="" style="edgeStyle=orthogonalEdgeStyle;rounded=0;orthogonalLoop=1;jettySize=auto;html=1;" edge="1" parent="1" source="T2HiSGA0iF5aa_nr4sq--19" target="T2HiSGA0iF5aa_nr4sq--23">
          <mxGeometry relative="1" as="geometry" />
        </mxCell>
        <mxCell id="T2HiSGA0iF5aa_nr4sq--31" value="" style="edgeStyle=orthogonalEdgeStyle;rounded=0;orthogonalLoop=1;jettySize=auto;html=1;" edge="1" parent="1" source="T2HiSGA0iF5aa_nr4sq--19" target="T2HiSGA0iF5aa_nr4sq--29">
          <mxGeometry relative="1" as="geometry" />
        </mxCell>
        <mxCell id="T2HiSGA0iF5aa_nr4sq--19" value="CONFIGURAÇÃO DE REDE DE COMUNICAÇÃO" style="verticalLabelPosition=middle;verticalAlign=middle;html=1;shape=process;whiteSpace=wrap;rounded=1;size=0.14;arcSize=6;labelPosition=center;align=center;" vertex="1" parent="1">
          <mxGeometry x="170" y="90" width="140" height="60" as="geometry" />
        </mxCell>
        <mxCell id="T2HiSGA0iF5aa_nr4sq--21" value="" style="edgeStyle=orthogonalEdgeStyle;rounded=0;orthogonalLoop=1;jettySize=auto;html=1;" edge="1" parent="1" source="T2HiSGA0iF5aa_nr4sq--20" target="T2HiSGA0iF5aa_nr4sq--19">
          <mxGeometry relative="1" as="geometry" />
        </mxCell>
        <mxCell id="T2HiSGA0iF5aa_nr4sq--30" value="" style="edgeStyle=orthogonalEdgeStyle;rounded=0;orthogonalLoop=1;jettySize=auto;html=1;" edge="1" parent="1" source="T2HiSGA0iF5aa_nr4sq--20" target="T2HiSGA0iF5aa_nr4sq--25">
          <mxGeometry relative="1" as="geometry" />
        </mxCell>
        <mxCell id="T2HiSGA0iF5aa_nr4sq--20" value="CARREGAR BIBLIOTECAS DE SISTEMA" style="verticalLabelPosition=middle;verticalAlign=middle;html=1;shape=process;whiteSpace=wrap;rounded=1;size=0.14;arcSize=6;labelPosition=center;align=center;" vertex="1" parent="1">
          <mxGeometry y="90" width="120" height="60" as="geometry" />
        </mxCell>
        <mxCell id="T2HiSGA0iF5aa_nr4sq--33" value="" style="edgeStyle=orthogonalEdgeStyle;rounded=0;orthogonalLoop=1;jettySize=auto;html=1;" edge="1" parent="1" source="T2HiSGA0iF5aa_nr4sq--23" target="T2HiSGA0iF5aa_nr4sq--32">
          <mxGeometry relative="1" as="geometry" />
        </mxCell>
        <mxCell id="T2HiSGA0iF5aa_nr4sq--35" value="" style="edgeStyle=orthogonalEdgeStyle;rounded=0;orthogonalLoop=1;jettySize=auto;html=1;" edge="1" parent="1" source="T2HiSGA0iF5aa_nr4sq--23" target="T2HiSGA0iF5aa_nr4sq--34">
          <mxGeometry relative="1" as="geometry" />
        </mxCell>
        <mxCell id="T2HiSGA0iF5aa_nr4sq--23" value="CONFIGURAÇÃO COM SERVIDOR EXTERNO" style="verticalLabelPosition=middle;verticalAlign=middle;html=1;shape=process;whiteSpace=wrap;rounded=1;size=0.14;arcSize=6;labelPosition=center;align=center;" vertex="1" parent="1">
          <mxGeometry x="340" y="90" width="140" height="60" as="geometry" />
        </mxCell>
        <mxCell id="T2HiSGA0iF5aa_nr4sq--28" value="" style="edgeStyle=orthogonalEdgeStyle;rounded=0;orthogonalLoop=1;jettySize=auto;html=1;" edge="1" parent="1" source="T2HiSGA0iF5aa_nr4sq--25" target="T2HiSGA0iF5aa_nr4sq--27">
          <mxGeometry relative="1" as="geometry" />
        </mxCell>
        <mxCell id="T2HiSGA0iF5aa_nr4sq--25" value="IDENTIFICAÇÃO DOS SENSORES E MÓDULOS" style="html=1;dashed=0;whiteSpace=wrap;" vertex="1" parent="1">
          <mxGeometry x="10" y="180" width="100" height="50" as="geometry" />
        </mxCell>
        <mxCell id="T2HiSGA0iF5aa_nr4sq--27" value="INICIALIZAR SENSORES E MÓDULOS" style="verticalLabelPosition=middle;verticalAlign=middle;html=1;shape=process;whiteSpace=wrap;rounded=1;size=0.14;arcSize=6;labelPosition=center;align=center;" vertex="1" parent="1">
          <mxGeometry x="10" y="260" width="100" height="60" as="geometry" />
        </mxCell>
        <mxCell id="T2HiSGA0iF5aa_nr4sq--29" value="INICIALIZAR&amp;nbsp; COMUNICAÇÃO POR REDE WIFI" style="verticalLabelPosition=middle;verticalAlign=middle;html=1;shape=process;whiteSpace=wrap;rounded=1;size=0.14;arcSize=6;labelPosition=center;align=center;" vertex="1" parent="1">
          <mxGeometry x="170" y="180" width="140" height="60" as="geometry" />
        </mxCell>
        <mxCell id="T2HiSGA0iF5aa_nr4sq--32" value="INICIAR ARQUIVO DE BACKUP" style="verticalLabelPosition=middle;verticalAlign=middle;html=1;shape=process;whiteSpace=wrap;rounded=1;size=0.14;arcSize=6;labelPosition=center;align=center;" vertex="1" parent="1">
          <mxGeometry x="360" y="180" width="100" height="60" as="geometry" />
        </mxCell>
        <mxCell id="T2HiSGA0iF5aa_nr4sq--37" value="" style="edgeStyle=orthogonalEdgeStyle;rounded=0;orthogonalLoop=1;jettySize=auto;html=1;" edge="1" parent="1" source="T2HiSGA0iF5aa_nr4sq--34" target="T2HiSGA0iF5aa_nr4sq--36">
          <mxGeometry relative="1" as="geometry" />
        </mxCell>
        <mxCell id="T2HiSGA0iF5aa_nr4sq--34" value="CONFIGURAÇÕES INICIAIS" style="html=1;dashed=0;whiteSpace=wrap;" vertex="1" parent="1">
          <mxGeometry x="510" y="95" width="110" height="50" as="geometry" />
        </mxCell>
        <mxCell id="T2HiSGA0iF5aa_nr4sq--38" value="" style="edgeStyle=orthogonalEdgeStyle;rounded=0;orthogonalLoop=1;jettySize=auto;html=1;" edge="1" parent="1" source="T2HiSGA0iF5aa_nr4sq--36" target="T2HiSGA0iF5aa_nr4sq--10">
          <mxGeometry relative="1" as="geometry" />
        </mxCell>
        <mxCell id="T2HiSGA0iF5aa_nr4sq--36" value="CARTÃO SD RECONHECIDO" style="shape=hexagon;perimeter=hexagonPerimeter2;whiteSpace=wrap;html=1;size=0.25" vertex="1" parent="1">
          <mxGeometry x="505" y="170" width="120" height="50" as="geometry" />
        </mxCell>
        <mxCell id="T2HiSGA0iF5aa_nr4sq--50" value="" style="edgeStyle=orthogonalEdgeStyle;rounded=0;orthogonalLoop=1;jettySize=auto;html=1;" edge="1" parent="1" source="T2HiSGA0iF5aa_nr4sq--41" target="T2HiSGA0iF5aa_nr4sq--49">
          <mxGeometry relative="1" as="geometry" />
        </mxCell>
        <mxCell id="T2HiSGA0iF5aa_nr4sq--41" value="SENSOR ESTÁ FUNCIONAL" style="shape=hexagon;perimeter=hexagonPerimeter2;whiteSpace=wrap;html=1;size=0.25" vertex="1" parent="1">
          <mxGeometry x="505" y="330" width="120" height="50" as="geometry" />
        </mxCell>
        <mxCell id="T2HiSGA0iF5aa_nr4sq--43" style="edgeStyle=orthogonalEdgeStyle;rounded=0;orthogonalLoop=1;jettySize=auto;html=1;entryX=1;entryY=0.5;entryDx=0;entryDy=0;exitX=1;exitY=0.5;exitDx=0;exitDy=0;" edge="1" parent="1" source="T2HiSGA0iF5aa_nr4sq--45" target="T2HiSGA0iF5aa_nr4sq--47">
          <mxGeometry relative="1" as="geometry">
            <Array as="points">
              <mxPoint x="700" y="635" />
              <mxPoint x="700" y="548" />
            </Array>
          </mxGeometry>
        </mxCell>
        <mxCell id="T2HiSGA0iF5aa_nr4sq--89" style="edgeStyle=orthogonalEdgeStyle;rounded=0;orthogonalLoop=1;jettySize=auto;html=1;exitX=0.5;exitY=1;exitDx=0;exitDy=0;entryX=0.5;entryY=0;entryDx=0;entryDy=0;entryPerimeter=0;" edge="1" parent="1" source="T2HiSGA0iF5aa_nr4sq--45" target="T2HiSGA0iF5aa_nr4sq--60">
          <mxGeometry relative="1" as="geometry" />
        </mxCell>
        <mxCell id="T2HiSGA0iF5aa_nr4sq--45" value="" style="shape=rhombus;html=1;dashed=0;whiteSpace=wrap;perimeter=rhombusPerimeter;" vertex="1" parent="1">
          <mxGeometry x="535" y="610" width="60" height="50" as="geometry" />
        </mxCell>
        <mxCell id="T2HiSGA0iF5aa_nr4sq--46" value="" style="edgeStyle=orthogonalEdgeStyle;rounded=0;orthogonalLoop=1;jettySize=auto;html=1;" edge="1" parent="1" source="T2HiSGA0iF5aa_nr4sq--47" target="T2HiSGA0iF5aa_nr4sq--45">
          <mxGeometry relative="1" as="geometry" />
        </mxCell>
        <mxCell id="T2HiSGA0iF5aa_nr4sq--47" value="REDE CONECTADA E DISPONÍVEL" style="shape=hexagon;perimeter=hexagonPerimeter2;whiteSpace=wrap;html=1;size=0.25;" vertex="1" parent="1">
          <mxGeometry x="482.5" y="520" width="165" height="55" as="geometry" />
        </mxCell>
        <mxCell id="T2HiSGA0iF5aa_nr4sq--51" value="" style="edgeStyle=orthogonalEdgeStyle;rounded=0;orthogonalLoop=1;jettySize=auto;html=1;" edge="1" parent="1" source="T2HiSGA0iF5aa_nr4sq--49" target="T2HiSGA0iF5aa_nr4sq--47">
          <mxGeometry relative="1" as="geometry" />
        </mxCell>
        <mxCell id="T2HiSGA0iF5aa_nr4sq--57" style="edgeStyle=orthogonalEdgeStyle;rounded=0;orthogonalLoop=1;jettySize=auto;html=1;exitX=1;exitY=0.5;exitDx=0;exitDy=0;entryX=1;entryY=0.5;entryDx=0;entryDy=0;" edge="1" parent="1" source="T2HiSGA0iF5aa_nr4sq--49" target="T2HiSGA0iF5aa_nr4sq--41">
          <mxGeometry relative="1" as="geometry">
            <Array as="points">
              <mxPoint x="660" y="435" />
              <mxPoint x="660" y="355" />
            </Array>
          </mxGeometry>
        </mxCell>
        <mxCell id="T2HiSGA0iF5aa_nr4sq--49" value="" style="shape=rhombus;html=1;dashed=0;whiteSpace=wrap;perimeter=rhombusPerimeter;" vertex="1" parent="1">
          <mxGeometry x="535" y="410" width="60" height="50" as="geometry" />
        </mxCell>
        <mxCell id="T2HiSGA0iF5aa_nr4sq--52" value="NÃO" style="text;html=1;strokeColor=none;fillColor=none;align=center;verticalAlign=middle;whiteSpace=wrap;rounded=0;" vertex="1" parent="1">
          <mxGeometry x="595" y="240" width="60" height="30" as="geometry" />
        </mxCell>
        <mxCell id="T2HiSGA0iF5aa_nr4sq--53" value="SIM" style="text;html=1;strokeColor=none;fillColor=none;align=center;verticalAlign=middle;whiteSpace=wrap;rounded=0;" vertex="1" parent="1">
          <mxGeometry x="565" y="290" width="60" height="30" as="geometry" />
        </mxCell>
        <mxCell id="T2HiSGA0iF5aa_nr4sq--54" value="NÃO" style="text;html=1;strokeColor=none;fillColor=none;align=center;verticalAlign=middle;whiteSpace=wrap;rounded=0;" vertex="1" parent="1">
          <mxGeometry x="595" y="410" width="60" height="30" as="geometry" />
        </mxCell>
        <mxCell id="T2HiSGA0iF5aa_nr4sq--55" value="SIM" style="text;html=1;strokeColor=none;fillColor=none;align=center;verticalAlign=middle;whiteSpace=wrap;rounded=0;" vertex="1" parent="1">
          <mxGeometry x="565" y="460" width="60" height="30" as="geometry" />
        </mxCell>
        <mxCell id="T2HiSGA0iF5aa_nr4sq--58" value="NÃO" style="text;html=1;strokeColor=none;fillColor=none;align=center;verticalAlign=middle;whiteSpace=wrap;rounded=0;" vertex="1" parent="1">
          <mxGeometry x="595" y="600" width="60" height="30" as="geometry" />
        </mxCell>
        <mxCell id="T2HiSGA0iF5aa_nr4sq--59" value="SIM" style="text;html=1;strokeColor=none;fillColor=none;align=center;verticalAlign=middle;whiteSpace=wrap;rounded=0;" vertex="1" parent="1">
          <mxGeometry x="565" y="660" width="60" height="30" as="geometry" />
        </mxCell>
        <mxCell id="T2HiSGA0iF5aa_nr4sq--79" value="" style="edgeStyle=orthogonalEdgeStyle;rounded=0;orthogonalLoop=1;jettySize=auto;html=1;" edge="1" parent="1" source="T2HiSGA0iF5aa_nr4sq--60" target="T2HiSGA0iF5aa_nr4sq--78">
          <mxGeometry relative="1" as="geometry" />
        </mxCell>
        <mxCell id="T2HiSGA0iF5aa_nr4sq--60" value="LOOP" style="html=1;dashed=0;whiteSpace=wrap;shape=mxgraph.dfd.loop" vertex="1" parent="1">
          <mxGeometry x="75" y="500" width="80" height="30" as="geometry" />
        </mxCell>
        <mxCell id="T2HiSGA0iF5aa_nr4sq--84" style="edgeStyle=orthogonalEdgeStyle;rounded=0;orthogonalLoop=1;jettySize=auto;html=1;exitX=1;exitY=0.5;exitDx=0;exitDy=0;exitPerimeter=0;entryX=0;entryY=0.5;entryDx=0;entryDy=0;" edge="1" parent="1" source="T2HiSGA0iF5aa_nr4sq--67" target="T2HiSGA0iF5aa_nr4sq--9">
          <mxGeometry relative="1" as="geometry" />
        </mxCell>
        <mxCell id="T2HiSGA0iF5aa_nr4sq--85" style="edgeStyle=orthogonalEdgeStyle;rounded=0;orthogonalLoop=1;jettySize=auto;html=1;exitX=1;exitY=0.5;exitDx=0;exitDy=0;exitPerimeter=0;entryX=0;entryY=0.5;entryDx=0;entryDy=0;entryPerimeter=0;" edge="1" parent="1" source="T2HiSGA0iF5aa_nr4sq--67" target="T2HiSGA0iF5aa_nr4sq--75">
          <mxGeometry relative="1" as="geometry" />
        </mxCell>
        <mxCell id="T2HiSGA0iF5aa_nr4sq--86" style="edgeStyle=orthogonalEdgeStyle;rounded=0;orthogonalLoop=1;jettySize=auto;html=1;exitX=1;exitY=0.5;exitDx=0;exitDy=0;exitPerimeter=0;entryX=0;entryY=0.5;entryDx=0;entryDy=0;entryPerimeter=0;" edge="1" parent="1" source="T2HiSGA0iF5aa_nr4sq--67" target="T2HiSGA0iF5aa_nr4sq--4">
          <mxGeometry relative="1" as="geometry" />
        </mxCell>
        <mxCell id="T2HiSGA0iF5aa_nr4sq--67" value="TRANFERINDO DADOS PARA ARQUIVO" style="verticalLabelPosition=middle;verticalAlign=middle;html=1;strokeWidth=2;shape=mxgraph.arrows2.arrow;dy=0.6;dx=40;notch=0;rotation=0;labelPosition=center;align=center;" vertex="1" parent="1">
          <mxGeometry x="-10" y="850" width="250" height="70" as="geometry" />
        </mxCell>
        <mxCell id="T2HiSGA0iF5aa_nr4sq--77" style="edgeStyle=orthogonalEdgeStyle;rounded=0;orthogonalLoop=1;jettySize=auto;html=1;exitX=1;exitY=0.5;exitDx=0;exitDy=0;exitPerimeter=0;entryX=0;entryY=0.5;entryDx=0;entryDy=0;entryPerimeter=0;" edge="1" parent="1" source="T2HiSGA0iF5aa_nr4sq--75" target="T2HiSGA0iF5aa_nr4sq--3">
          <mxGeometry relative="1" as="geometry" />
        </mxCell>
        <mxCell id="T2HiSGA0iF5aa_nr4sq--75" value="MONITOR SERIAL" style="strokeWidth=2;html=1;shape=mxgraph.flowchart.display;whiteSpace=wrap;" vertex="1" parent="1">
          <mxGeometry x="290" y="750" width="100" height="60" as="geometry" />
        </mxCell>
        <mxCell id="T2HiSGA0iF5aa_nr4sq--81" value="" style="edgeStyle=orthogonalEdgeStyle;rounded=0;orthogonalLoop=1;jettySize=auto;html=1;" edge="1" parent="1" source="T2HiSGA0iF5aa_nr4sq--78" target="T2HiSGA0iF5aa_nr4sq--80">
          <mxGeometry relative="1" as="geometry" />
        </mxCell>
        <mxCell id="T2HiSGA0iF5aa_nr4sq--78" value="ATRIBUIÇÃO DE VÁRIAVÉS DE LEITURA DO SENSOR" style="verticalLabelPosition=middle;verticalAlign=middle;html=1;shape=process;whiteSpace=wrap;rounded=1;size=0.14;arcSize=6;labelPosition=center;align=center;" vertex="1" parent="1">
          <mxGeometry x="60" y="567.5" width="110" height="75" as="geometry" />
        </mxCell>
        <mxCell id="T2HiSGA0iF5aa_nr4sq--82" value="" style="edgeStyle=orthogonalEdgeStyle;rounded=0;orthogonalLoop=1;jettySize=auto;html=1;" edge="1" parent="1" source="T2HiSGA0iF5aa_nr4sq--80" target="T2HiSGA0iF5aa_nr4sq--7">
          <mxGeometry relative="1" as="geometry" />
        </mxCell>
        <mxCell id="T2HiSGA0iF5aa_nr4sq--80" value="LEITURA DOS SENSORES INDEPENDENTE" style="html=1;dashed=0;whiteSpace=wrap;" vertex="1" parent="1">
          <mxGeometry x="65" y="690" width="100" height="50" as="geometry" />
        </mxCell>
        <mxCell id="T2HiSGA0iF5aa_nr4sq--90" value="ENCERRAR ENERGIA" style="strokeWidth=2;html=1;shape=mxgraph.flowchart.terminator;whiteSpace=wrap;" vertex="1" parent="1">
          <mxGeometry x="630" y="895" width="100" height="60" as="geometry" />
        </mxCell>
      </root>
    </mxGraphModel>
  </diagram>
</mxfile>
